<svg xmlns="http://www.w3.org/2000/svg" viewBox="0 0 762.13 517.47"><defs><style>.cls-1{fill:#fff;}</style></defs><g id="Слой_2" data-name="Слой 2"><g id="Слой_1-2" data-name="Слой 1"><path class="cls-1" d="M51.38,225.32V197.48H83.6V81.24H51.38V53.4H147V81.24H114.53V197.48H147v27.84Z"/><path class="cls-1" d="M183,225.32V81H157.72V53.4h54.13V225.32Z"/><path class="cls-1" d="M222.57,225.32V53.4h28.86v62.89l9.8-9.79a17.6,17.6,0,0,1,12.89-5.42h27.32a17.18,17.18,0,0,1,12.63,5.16l11.34,11.34a17.89,17.89,0,0,1,5.41,13.15v94.59H302V136.91a3.93,3.93,0,0,0-1.29-2.83L296.54,130a3.93,3.93,0,0,0-2.83-1.29h-17a3.93,3.93,0,0,0-2.83,1.29l-21.14,21.14a3.93,3.93,0,0,0-1.29,2.83v71.4Z"/><path class="cls-1" d="M358.29,220.16,347,208.82a17.89,17.89,0,0,1-5.41-13.14v-65A17.89,17.89,0,0,1,347,117.58l11.34-11.34a17.18,17.18,0,0,1,12.63-5.16h54.9a17.18,17.18,0,0,1,12.63,5.16l11.34,11.34a17.9,17.9,0,0,1,5.42,13.15v65a17.9,17.9,0,0,1-5.42,13.14l-11.34,11.34a17.18,17.18,0,0,1-12.63,5.16h-54.9A17.18,17.18,0,0,1,358.29,220.16Zm13.4-27.83,4.13,4.12a3.93,3.93,0,0,0,2.83,1.29h39.44a3.93,3.93,0,0,0,2.83-1.29l4.13-4.12a4,4,0,0,0,1.29-2.84V136.91a3.93,3.93,0,0,0-1.29-2.83L420.92,130a3.93,3.93,0,0,0-2.83-1.29H378.65a3.93,3.93,0,0,0-2.83,1.29l-4.13,4.13a3.92,3.92,0,0,0-1.28,2.83v52.58A3.94,3.94,0,0,0,371.69,192.33Z"/><path class="cls-1" d="M465.08,225.32v-100l-5.41-24.23h28.87l3.86,16.76,11.6-11.6a17.48,17.48,0,0,1,12.89-5.16H536a17.18,17.18,0,0,1,12.63,5.16l13.4,13.4,13.15-13.14A17.6,17.6,0,0,1,588,101.08h19.59a17.18,17.18,0,0,1,12.63,5.16l11.34,11.34q4.89,4.9,4.89,13.15v94.59H607.62V136.91a3.93,3.93,0,0,0-1.29-2.83L602.2,130a3.93,3.93,0,0,0-2.83-1.29h-8.76a3.94,3.94,0,0,0-2.84,1.29l-21.14,21.14a3.92,3.92,0,0,0-1.28,2.83v71.4H536.48V136.91a3.93,3.93,0,0,0-1.29-2.83L531.07,130a4,4,0,0,0-2.84-1.29h-9a4,4,0,0,0-2.84,1.29l-21.13,21.14a3.93,3.93,0,0,0-1.29,2.83v71.4Z"/><rect class="cls-1" x="498.14" y="370.08" width="36.85" height="24.56"/><polygon class="cls-1" points="109.22 320.95 96.94 320.95 96.94 345.52 72.38 345.52 72.38 394.65 133.79 394.65 133.79 345.52 109.22 345.52 109.22 320.95"/><path class="cls-1" d="M687.87,260.85V0H0V517.47H354.91V492.9H404V468.34H354.91V443.78H330.35V345.52h36.84v98.26H404V345.52h36.85V492.9H416.32v24.57H762.13V260.85Zm-670-243H670v243H17.86ZM170.64,468.34H133.79V419.21H72.38v49.13H35.53V345.52H60.1V321H84.66V296.39h36.85V321h24.56v24.57h24.57Zm82.09,0H215.88V443.78H191.32V296.39h36.84V443.78h24.57Zm56.49,0H272.38V345.52h36.84Zm0-147.39H272.38V296.39h36.84Zm262.62,98.26h-73.7v24.57h49.13v24.56H485.86V443.78H461.3v-73.7h24.56V345.52h61.41v24.56h24.57Zm154.75-24.56H702v49.13H677.46v24.56H640.61V443.78H616.05V394.65H591.49V345.52h36.84v49.13H652.9v49.13h12.28V394.65h24.56V345.52h36.85Z"/></g></g></svg>