<?xml version="1.0" encoding="UTF-8"?>
<svg xmlns="http://www.w3.org/2000/svg" viewBox="0 0 511.81 489.79">
  <g>
    <path d="M18.58,168.19c7.75-2.15,16.03-2.61,24.11-3.36,41.88-3.86,83.77-7.6,125.67-11.29,3.37-.3,5.13-1.6,6.5-4.81,18.35-43.26,36.92-86.42,55.28-129.68,3.73-8.78,9.35-15.28,18.68-17.95,13.67-3.9,26.92,2.7,32.86,16.48,12.55,29.13,24.94,58.32,37.4,87.48,6.3,14.75,12.7,29.47,18.84,44.29,.96,2.31,3.11,3.9,5.6,4.11,30.8,2.68,61.6,5.45,92.39,8.24,16.89,1.53,33.77,3.09,50.65,4.72,11.76,1.14,19.97,7.36,23.67,18.47,3.85,11.57,.54,21.67-8.57,29.69-35.35,31.07-70.72,62.11-106.2,93.04-3.2,2.79-4.44,5.15-3.4,9.61,10.63,45.78,20.98,91.62,31.4,137.45,2.72,11.97-.07,22.32-10.16,29.66-10.06,7.31-20.75,6.97-31.32,.65-40.35-24.14-80.73-48.24-121.01-72.51-3.44-2.07-5.88-2.12-9.34-.04-40.14,24.17-80.37,48.19-120.6,72.21-13.64,8.14-28.32,6.03-37.16-5.29-5.59-7.16-7.01-15.28-5.02-24.03,10.41-45.83,20.78-91.67,31.4-137.45,1.08-4.67,.22-7.35-3.43-10.52-20.2-17.55-40.33-35.19-60.46-52.83-8.04-7.05-16.01-14.19-24.08-21.2-9.39-8.16-20.15-15.7-27.37-26.01-2.64-3.77-4.6-8.13-4.88-12.72-.29-4.72,1.23-9.41,3.55-13.53,3.25-5.77,8.47-11.08,15-12.89Z"/>
  </g>
</svg>