<svg width="21" height="25" viewBox="0 0 21 25" fill="none" xmlns="http://www.w3.org/2000/svg">
<path id="mark" d="M2.5 24.8819C2.02381 25.0725 1.57143 25.031 1.14286 24.7574C0.714285 24.4838 0.5 24.0844 0.5 23.5591V2.85999C0.5 2.07349 0.78 1.39996 1.34 0.839407C1.9 0.278851 2.57238 -0.0009509 3.35714 2.42783e-06H17.6429C18.4286 2.42783e-06 19.1014 0.280281 19.6614 0.840837C20.2214 1.40139 20.5009 2.07444 20.5 2.85999V23.5591C20.5 24.0834 20.2857 24.4829 19.8571 24.7574C19.4286 25.032 18.9762 25.0735 18.5 24.8819L10.5 21.4499L2.5 24.8819Z" fill="#526ED3"/>
</svg>
